<svg width="265" height="40" viewBox="0 0 265 40" fill="none" xmlns="http://www.w3.org/2000/svg">
<circle cx="20.5" cy="19.5" r="18.5" fill="white"/>
<path d="M49.0568 27.245C47.7881 27.245 46.6909 26.9755 45.7653 26.4364C44.8451 25.8919 44.1345 25.1351 43.6335 24.1658C43.1326 23.1912 42.8821 22.0613 42.8821 20.7763C42.8821 19.4804 43.1326 18.3478 43.6335 17.3786C44.1345 16.4039 44.8451 15.647 45.7653 15.108C46.6909 14.5634 47.7881 14.2912 49.0568 14.2912C50.3255 14.2912 51.42 14.5634 52.3402 15.108C53.2659 15.647 53.9792 16.4039 54.4801 17.3786C54.9811 18.3478 55.2315 19.4804 55.2315 20.7763C55.2315 22.0613 54.9811 23.1912 54.4801 24.1658C53.9792 25.1351 53.2659 25.8919 52.3402 26.4364C51.42 26.9755 50.3255 27.245 49.0568 27.245ZM49.0732 24.5497C49.6503 24.5497 50.1322 24.3864 50.5188 24.0597C50.9054 23.7275 51.1967 23.2756 51.3928 22.7038C51.5942 22.1321 51.695 21.4814 51.695 20.7518C51.695 20.0221 51.5942 19.3714 51.3928 18.7997C51.1967 18.228 50.9054 17.776 50.5188 17.4439C50.1322 17.1117 49.6503 16.9457 49.0732 16.9457C48.4905 16.9457 48.0005 17.1117 47.603 17.4439C47.2109 17.776 46.9142 18.228 46.7127 18.7997C46.5167 19.3714 46.4187 20.0221 46.4187 20.7518C46.4187 21.4814 46.5167 22.1321 46.7127 22.7038C46.9142 23.2756 47.2109 23.7275 47.603 24.0597C48.0005 24.3864 48.4905 24.5497 49.0732 24.5497ZM59.679 27V14.4545H63.1584V27H59.679ZM61.4268 12.8374C60.9095 12.8374 60.4658 12.6658 60.0955 12.3228C59.7307 11.9743 59.5483 11.5578 59.5483 11.0732C59.5483 10.594 59.7307 10.1829 60.0955 9.83984C60.4658 9.49136 60.9095 9.31712 61.4268 9.31712C61.9441 9.31712 62.3852 9.49136 62.75 9.83984C63.1203 10.1829 63.3054 10.594 63.3054 11.0732C63.3054 11.5578 63.1203 11.9743 62.75 12.3228C62.3852 12.6658 61.9441 12.8374 61.4268 12.8374ZM71.61 19.7472V27H68.1306V14.4545H71.4466V16.668H71.5936C71.8713 15.9383 72.3369 15.3611 72.9903 14.9364C73.6437 14.5063 74.436 14.2912 75.3671 14.2912C76.2383 14.2912 76.9979 14.4818 77.6458 14.8629C78.2938 15.2441 78.7975 15.7886 79.1568 16.4964C79.5162 17.1989 79.6959 18.0374 79.6959 19.0121V27H76.2165V19.6328C76.2219 18.8651 76.0259 18.2661 75.6284 17.8359C75.2309 17.4003 74.6837 17.1825 73.9867 17.1825C73.5185 17.1825 73.1046 17.2833 72.7453 17.4847C72.3913 17.6862 72.1136 17.9802 71.9122 18.3668C71.7161 18.748 71.6154 19.2081 71.61 19.7472ZM84.6885 10.2727H89.05L93.6566 21.5114H93.8526L98.4591 10.2727H102.821V27H99.3902V16.1126H99.2514L94.9225 26.9183H92.5866L88.2578 16.0717H88.1189V27H84.6885V10.2727ZM111.431 27.2369C110.631 27.2369 109.918 27.098 109.292 26.8203C108.665 26.5372 108.17 26.1206 107.805 25.5707C107.446 25.0153 107.266 24.3237 107.266 23.4961C107.266 22.7991 107.394 22.2138 107.65 21.7401C107.906 21.2663 108.254 20.8852 108.695 20.5966C109.136 20.308 109.637 20.0902 110.198 19.9432C110.764 19.7962 111.358 19.6927 111.979 19.6328C112.708 19.5566 113.296 19.4858 113.743 19.4205C114.189 19.3497 114.513 19.2462 114.715 19.1101C114.916 18.974 115.017 18.7725 115.017 18.5057V18.4567C115.017 17.9394 114.854 17.5392 114.527 17.256C114.206 16.9729 113.748 16.8313 113.155 16.8313C112.529 16.8313 112.03 16.9702 111.66 17.2479C111.29 17.5201 111.045 17.8632 110.925 18.277L107.707 18.0156C107.87 17.2533 108.192 16.5945 108.671 16.0391C109.15 15.4782 109.768 15.0481 110.525 14.7486C111.287 14.4437 112.169 14.2912 113.171 14.2912C113.868 14.2912 114.535 14.3729 115.172 14.5362C115.815 14.6996 116.384 14.9528 116.879 15.2958C117.38 15.6388 117.775 16.0799 118.064 16.619C118.352 17.1526 118.496 17.7924 118.496 18.5384V27H115.197V25.2603H115.099C114.897 25.6523 114.628 25.9981 114.29 26.2976C113.953 26.5916 113.547 26.823 113.073 26.9918C112.599 27.1552 112.052 27.2369 111.431 27.2369ZM112.428 24.8356C112.94 24.8356 113.392 24.7348 113.784 24.5334C114.176 24.3265 114.483 24.0488 114.707 23.7003C114.93 23.3518 115.042 22.957 115.042 22.516V21.1847C114.933 21.2554 114.783 21.3208 114.592 21.3807C114.407 21.4351 114.198 21.4869 113.963 21.5359C113.729 21.5794 113.495 21.6203 113.261 21.6584C113.027 21.6911 112.815 21.721 112.624 21.7482C112.216 21.8081 111.859 21.9034 111.554 22.0341C111.249 22.1648 111.012 22.3417 110.843 22.565C110.675 22.7828 110.59 23.055 110.59 23.3817C110.59 23.8555 110.762 24.2176 111.105 24.468C111.453 24.7131 111.894 24.8356 112.428 24.8356ZM126.86 19.7472V27H123.381V14.4545H126.697V16.668H126.844C127.122 15.9383 127.587 15.3611 128.241 14.9364C128.894 14.5063 129.686 14.2912 130.617 14.2912C131.489 14.2912 132.248 14.4818 132.896 14.8629C133.544 15.2441 134.048 15.7886 134.407 16.4964C134.767 17.1989 134.946 18.0374 134.946 19.0121V27H131.467V19.6328C131.472 18.8651 131.276 18.2661 130.879 17.8359C130.481 17.4003 129.934 17.1825 129.237 17.1825C128.769 17.1825 128.355 17.2833 127.996 17.4847C127.642 17.6862 127.364 17.9802 127.162 18.3668C126.966 18.748 126.866 19.2081 126.86 19.7472ZM143.451 27.2369C142.65 27.2369 141.937 27.098 141.311 26.8203C140.685 26.5372 140.189 26.1206 139.824 25.5707C139.465 25.0153 139.285 24.3237 139.285 23.4961C139.285 22.7991 139.413 22.2138 139.669 21.7401C139.925 21.2663 140.274 20.8852 140.715 20.5966C141.156 20.308 141.657 20.0902 142.218 19.9432C142.784 19.7962 143.377 19.6927 143.998 19.6328C144.728 19.5566 145.316 19.4858 145.762 19.4205C146.209 19.3497 146.533 19.2462 146.734 19.1101C146.936 18.974 147.036 18.7725 147.036 18.5057V18.4567C147.036 17.9394 146.873 17.5392 146.546 17.256C146.225 16.9729 145.768 16.8313 145.174 16.8313C144.548 16.8313 144.05 16.9702 143.68 17.2479C143.309 17.5201 143.064 17.8632 142.945 18.277L139.726 18.0156C139.89 17.2533 140.211 16.5945 140.69 16.0391C141.169 15.4782 141.787 15.0481 142.544 14.7486C143.307 14.4437 144.189 14.2912 145.191 14.2912C145.888 14.2912 146.555 14.3729 147.192 14.5362C147.834 14.6996 148.403 14.9528 148.899 15.2958C149.4 15.6388 149.794 16.0799 150.083 16.619C150.372 17.1526 150.516 17.7924 150.516 18.5384V27H147.216V25.2603H147.118C146.917 25.6523 146.647 25.9981 146.31 26.2976C145.972 26.5916 145.566 26.823 145.093 26.9918C144.619 27.1552 144.072 27.2369 143.451 27.2369ZM144.447 24.8356C144.959 24.8356 145.411 24.7348 145.803 24.5334C146.195 24.3265 146.503 24.0488 146.726 23.7003C146.949 23.3518 147.061 22.957 147.061 22.516V21.1847C146.952 21.2554 146.802 21.3208 146.612 21.3807C146.427 21.4351 146.217 21.4869 145.983 21.5359C145.749 21.5794 145.515 21.6203 145.28 21.6584C145.046 21.6911 144.834 21.721 144.643 21.7482C144.235 21.8081 143.878 21.9034 143.573 22.0341C143.268 22.1648 143.032 22.3417 142.863 22.565C142.694 22.7828 142.61 23.055 142.61 23.3817C142.61 23.8555 142.781 24.2176 143.124 24.468C143.473 24.7131 143.914 24.8356 144.447 24.8356ZM161.052 31.9659C159.925 31.9659 158.959 31.8107 158.153 31.5004C157.352 31.1954 156.715 30.7789 156.242 30.2507C155.768 29.7225 155.46 29.129 155.319 28.4702L158.537 28.0373C158.635 28.2878 158.79 28.5219 159.002 28.7397C159.215 28.9575 159.495 29.1317 159.843 29.2624C160.197 29.3986 160.628 29.4666 161.134 29.4666C161.891 29.4666 162.514 29.2815 163.004 28.9112C163.5 28.5464 163.748 27.9338 163.748 27.0735V24.7784H163.601C163.448 25.1269 163.219 25.4563 162.914 25.7667C162.61 26.0771 162.218 26.3303 161.738 26.5263C161.259 26.7223 160.687 26.8203 160.023 26.8203C159.081 26.8203 158.224 26.6025 157.45 26.1669C156.683 25.7259 156.07 25.0534 155.613 24.1495C155.161 23.2402 154.935 22.0913 154.935 20.7028C154.935 19.2816 155.166 18.0946 155.629 17.1417C156.092 16.1888 156.707 15.4755 157.475 15.0018C158.248 14.5281 159.095 14.2912 160.015 14.2912C160.717 14.2912 161.305 14.411 161.779 14.6506C162.253 14.8847 162.634 15.1787 162.923 15.5327C163.217 15.8812 163.443 16.2242 163.601 16.5618H163.731V14.4545H167.186V27.1225C167.186 28.1897 166.925 29.0827 166.402 29.8015C165.879 30.5202 165.155 31.0593 164.229 31.4187C163.309 31.7835 162.25 31.9659 161.052 31.9659ZM161.126 24.2067C161.687 24.2067 162.16 24.0678 162.547 23.7901C162.939 23.507 163.238 23.104 163.445 22.5813C163.658 22.0531 163.764 21.4215 163.764 20.6864C163.764 19.9513 163.66 19.3143 163.454 18.7752C163.247 18.2307 162.947 17.8087 162.555 17.5092C162.163 17.2098 161.687 17.06 161.126 17.06C160.554 17.06 160.072 17.2152 159.68 17.5256C159.288 17.8305 158.991 18.2552 158.79 18.7997C158.588 19.3442 158.488 19.9731 158.488 20.6864C158.488 21.4106 158.588 22.0368 158.79 22.565C158.997 23.0877 159.294 23.4934 159.68 23.782C160.072 24.0651 160.554 24.2067 161.126 24.2067ZM177.857 27.245C176.567 27.245 175.456 26.9837 174.525 26.4609C173.599 25.9328 172.886 25.1868 172.385 24.223C171.884 23.2538 171.634 22.1076 171.634 20.7844C171.634 19.494 171.884 18.3614 172.385 17.3867C172.886 16.4121 173.591 15.6525 174.5 15.108C175.415 14.5634 176.488 14.2912 177.718 14.2912C178.546 14.2912 179.317 14.4246 180.03 14.6914C180.749 14.9528 181.375 15.3475 181.908 15.8757C182.448 16.4039 182.867 17.0682 183.166 17.8686C183.466 18.6636 183.615 19.5947 183.615 20.6619V21.6175H173.022V19.4613H180.34C180.34 18.9603 180.231 18.5166 180.014 18.13C179.796 17.7434 179.494 17.4412 179.107 17.2234C178.726 17.0001 178.282 16.8885 177.776 16.8885C177.247 16.8885 176.779 17.011 176.371 17.256C175.968 17.4956 175.652 17.8196 175.423 18.228C175.195 18.6309 175.078 19.0801 175.072 19.5756V21.6257C175.072 22.2464 175.186 22.7828 175.415 23.2347C175.649 23.6867 175.979 24.0352 176.403 24.2802C176.828 24.5252 177.332 24.6477 177.914 24.6477C178.301 24.6477 178.655 24.5933 178.976 24.4844C179.298 24.3755 179.573 24.2121 179.801 23.9943C180.03 23.7765 180.204 23.5097 180.324 23.1939L183.542 23.4062C183.379 24.1795 183.044 24.8546 182.537 25.4318C182.036 26.0036 181.388 26.45 180.593 26.7713C179.804 27.0871 178.892 27.245 177.857 27.245Z" fill="white"/>
<path d="M27.88 17.4055H23.4411C23.3819 16.9498 23.2605 16.5385 23.0771 16.1715C22.8936 15.8046 22.6509 15.4909 22.3491 15.2305C22.0472 14.9701 21.6892 14.7718 21.2749 14.6357C20.8665 14.4936 20.4137 14.4226 19.9165 14.4226C19.0347 14.4226 18.2741 14.6386 17.6349 15.0707C17.0017 15.5027 16.5134 16.1271 16.1701 16.9439C15.8327 17.7607 15.6641 18.7491 15.6641 19.9091C15.6641 21.1165 15.8357 22.1286 16.179 22.9453C16.5282 23.7562 17.0165 24.3687 17.6438 24.783C18.2771 25.1914 19.0258 25.3956 19.8899 25.3956C20.3752 25.3956 20.8162 25.3335 21.2127 25.2092C21.6152 25.0849 21.9673 24.9044 22.2692 24.6676C22.5769 24.425 22.8285 24.132 23.0238 23.7887C23.225 23.4395 23.3641 23.0459 23.4411 22.608L27.88 22.6346C27.803 23.4395 27.5692 24.2326 27.1786 25.0138C26.7939 25.7951 26.2642 26.5083 25.5895 27.1534C24.9148 27.7926 24.0921 28.3016 23.1214 28.6804C22.1567 29.0592 21.05 29.2486 19.8011 29.2486C18.1558 29.2486 16.6821 28.8875 15.38 28.1655C14.0838 27.4375 13.0599 26.3781 12.3082 24.9872C11.5566 23.5964 11.1808 21.9036 11.1808 19.9091C11.1808 17.9086 11.5625 16.2129 12.326 14.8221C13.0895 13.4312 14.1223 12.3748 15.4244 11.6527C16.7264 10.9306 18.1854 10.5696 19.8011 10.5696C20.902 10.5696 21.92 10.7235 22.8551 11.0312C23.7902 11.3331 24.6129 11.777 25.3232 12.3629C26.0334 12.9429 26.6104 13.6561 27.0543 14.5025C27.4982 15.3488 27.7734 16.3165 27.88 17.4055Z" fill="#0A0C24"/>
</svg>
