<svg width="40" height="40" viewBox="0 0 40 40" fill="none" xmlns="http://www.w3.org/2000/svg">
<path d="M20 39C30.4934 39 39 30.4934 39 20C39 9.50659 30.4934 1 20 1C9.50659 1 1 9.50659 1 20C1 30.4934 9.50659 39 20 39Z" fill="#0052FF"/>
<path fill-rule="evenodd" clip-rule="evenodd" d="M8 20C8 26.6274 13.3726 32 20 32C26.6274 32 32 26.6274 32 20C32 13.3726 26.6274 8 20 8C13.3726 8 8 13.3726 8 20ZM16.9333 16.1333C16.4915 16.1333 16.1333 16.4915 16.1333 16.9333V23.0667C16.1333 23.5085 16.4915 23.8667 16.9333 23.8667H23.0667C23.5085 23.8667 23.8667 23.5085 23.8667 23.0667V16.9333C23.8667 16.4915 23.5085 16.1333 23.0667 16.1333H16.9333Z" fill="white"/>
</svg>
